<svg xmlns="http://www.w3.org/2000/svg" viewBox="0 0 900 600" role="img" aria-labelledby="title desc">
  <title>Responsive web page illustration</title>
  <desc>An illustration of a stylized webpage with cards, text, and a graphic form.</desc>
  <defs>
    <linearGradient id="bg" x1="0" y1="0" x2="1" y2="1">
      <stop offset="0%" stop-color="#93c5fd" />
      <stop offset="100%" stop-color="#60a5fa" />
    </linearGradient>
    <linearGradient id="card" x1="0" y1="0" x2="1" y2="1">
      <stop offset="0%" stop-color="#f8fafc" />
      <stop offset="100%" stop-color="#e2e8f0" />
    </linearGradient>
  </defs>
  <rect width="900" height="600" rx="40" fill="url(#bg)" />
  <rect x="80" y="90" width="740" height="420" rx="32" fill="white" opacity="0.95" />
  <rect x="120" y="140" width="620" height="35" rx="16" fill="#2563eb" />
  <rect x="120" y="190" width="520" height="20" rx="10" fill="#cbd5e1" />
  <rect x="120" y="225" width="260" height="20" rx="10" fill="#e2e8f0" />
  <rect x="120" y="270" width="520" height="16" rx="8" fill="#cbd5e1" />
  <rect x="120" y="302" width="480" height="16" rx="8" fill="#cbd5e1" />
  <rect x="120" y="334" width="450" height="16" rx="8" fill="#cbd5e1" />
  <rect x="120" y="380" width="200" height="220" rx="26" fill="url(#card)" />
  <rect x="350" y="380" width="200" height="88" rx="20" fill="url(#card)" />
  <rect x="580" y="380" width="120" height="120" rx="18" fill="url(#card)" />
  <circle cx="220" cy="480" r="24" fill="#2563eb" />
  <circle cx="320" cy="470" r="18" fill="#60a5fa" />
  <path d="M570 400c0-16 15-30 33-30h84c18 0 33 14 33 30v38c0 16-15 30-33 30h-84c-18 0-33-14-33-30v-38z" fill="#2563eb" opacity="0.85" />
  <path d="M460 430h260v10H460z" fill="#fff" opacity="0.8" />
  <path d="M460 455h180v10H460z" fill="#fff" opacity="0.8" />
  <path d="M460 480h230v10H460z" fill="#fff" opacity="0.8" />
</svg>
